<svg id="diceSVG" viewBox="0 0 1024 1024" version="1.1" xmlns="http://www.w3.org/2000/svg">
    <path d="M213.333333 128h597.333334a85.333333 85.333333 0 0 1 85.333333 85.333333v597.333334a85.333333 85.333333 0 0 1-85.333333 85.333333H213.333333a85.333333 85.333333 0 0 1-85.333333-85.333333V213.333333a85.333333 85.333333 0 0 1 85.333333-85.333333m85.333334 85.333333a85.333333 85.333333 0 0 0-85.333334 85.333334 85.333333 85.333333 0 0 0 85.333334 85.333333 85.333333 85.333333 0 0 0 85.333333-85.333333 85.333333 85.333333 0 0 0-85.333333-85.333334m426.666666 426.666667a85.333333 85.333333 0 0 0-85.333333 85.333333 85.333333 85.333333 0 0 0 85.333333 85.333334 85.333333 85.333333 0 0 0 85.333334-85.333334 85.333333 85.333333 0 0 0-85.333334-85.333333m0-213.333333a85.333333 85.333333 0 0 0-85.333333 85.333333 85.333333 85.333333 0 0 0 85.333333 85.333333 85.333333 85.333333 0 0 0 85.333334-85.333333 85.333333 85.333333 0 0 0-85.333334-85.333333m0-213.333334a85.333333 85.333333 0 0 0-85.333333 85.333334 85.333333 85.333333 0 0 0 85.333333 85.333333 85.333333 85.333333 0 0 0 85.333334-85.333333 85.333333 85.333333 0 0 0-85.333334-85.333334M298.666667 426.666667a85.333333 85.333333 0 0 0-85.333334 85.333333 85.333333 85.333333 0 0 0 85.333334 85.333333 85.333333 85.333333 0 0 0 85.333333-85.333333 85.333333 85.333333 0 0 0-85.333333-85.333333m0 213.333333a85.333333 85.333333 0 0 0-85.333334 85.333333 85.333333 85.333333 0 0 0 85.333334 85.333334 85.333333 85.333333 0 0 0 85.333333-85.333334 85.333333 85.333333 0 0 0-85.333333-85.333333z" />
</svg>